<?xml version="1.0" encoding="UTF-8"?>
<svg width="700pt" height="700pt" version="1.1" viewBox="0 0 700 700" xmlns="http://www.w3.org/2000/svg" xmlns:xlink="http://www.w3.org/1999/xlink">
 <symbol viewBox="0 0 42.9 45" id="search-icon--property-types--detached"><path d="M42.2 19.8 23.2.7c-.4-.4-1-.7-1.7-.7-.6 0-1.3.2-1.7.7L.8 19.8c-.9.9-.9 2.5 0 3.4.4.4 1 .7 1.7.7.6 0 1.2-.2 1.7-.7l1.5-1.5v18.9c0 2.5 2 4.5 4.5 4.5H33c2.5 0 4.5-2 4.5-4.5v-19l1.5 1.5c.4.4 1 .7 1.7.7s1.2-.2 1.7-.7c.8-.9.8-2.4-.2-3.3zM17.8 43.2V31.9c0-.7.5-1.2 1.2-1.2h5c.7 0 1.2.5 1.2 1.2v11.3h-7.4zm17.7-2.7c0 1.5-1.2 2.7-2.7 2.7H26V31.9c0-1.1-.9-2.1-2.1-2.1h-5c-1.1 0-2.1.9-2.1 2.1v11.3H10c-1.5 0-2.7-1.2-2.7-2.7V19.9L21.5 5.8l14.1 14.1v20.6zM41 21.9c-.2.2-.6.2-.8 0L21.5 3.2 2.8 21.9c-.2.2-.6.2-.8 0-.2-.2-.2-.6 0-.8L21 2c.1-.1.3-.2.4-.2.1 0 .3.1.4.2l19 19c.4.3.4.6.2.9z"></path></symbol>
</svg>