<?xml version="1.0" encoding="UTF-8"?>
<svg width="700pt" height="700pt" version="1.1" viewBox="0 0 700 700" xmlns="http://www.w3.org/2000/svg" xmlns:xlink="http://www.w3.org/1999/xlink">
 <defs>
  <symbol id="v" overflow="visible">
   <path d="m3.6562-0.21875c-0.1875 0.09375-0.38672 0.16797-0.59375 0.21875-0.19922 0.050781-0.40625 0.078125-0.625 0.078125-0.66797 0-1.1992-0.17969-1.5938-0.54688-0.38672-0.375-0.57812-0.87891-0.57812-1.5156 0-0.64453 0.19141-1.1484 0.57812-1.5156 0.39453-0.375 0.92578-0.5625 1.5938-0.5625 0.21875 0 0.42578 0.027344 0.625 0.078125 0.20703 0.054687 0.40625 0.125 0.59375 0.21875v0.82812c-0.1875-0.125-0.375-0.21875-0.5625-0.28125-0.17969-0.0625-0.37109-0.09375-0.57812-0.09375-0.36719 0-0.65625 0.12109-0.875 0.35938-0.21094 0.23047-0.3125 0.55469-0.3125 0.96875 0 0.40625 0.10156 0.73047 0.3125 0.96875 0.21875 0.23047 0.50781 0.34375 0.875 0.34375 0.20703 0 0.39844-0.023437 0.57812-0.078125 0.1875-0.0625 0.375-0.16016 0.5625-0.29688z"/>
  </symbol>
  <symbol id="d" overflow="visible">
   <path d="m2.6875-2.1719c-0.085938-0.039063-0.16797-0.070313-0.25-0.09375-0.085938-0.019531-0.16797-0.03125-0.25-0.03125-0.25 0-0.44531 0.085937-0.57812 0.25-0.125 0.15625-0.1875 0.38281-0.1875 0.67188v1.375h-0.96875v-2.9844h0.96875v0.48438c0.11328-0.19531 0.25-0.33594 0.40625-0.42188 0.16406-0.09375 0.35938-0.14062 0.57812-0.14062h0.10938c0.039063 0 0.09375 0.007812 0.15625 0.015625z"/>
  </symbol>
  <symbol id="a" overflow="visible">
   <path d="m3.4375-1.5v0.26562h-2.2344c0.03125 0.23047 0.11328 0.40234 0.25 0.51562 0.13281 0.10547 0.32812 0.15625 0.57812 0.15625 0.20703 0 0.41406-0.023438 0.625-0.078125 0.20703-0.0625 0.42188-0.15625 0.64062-0.28125v0.73438c-0.21875 0.09375-0.44531 0.16406-0.67188 0.20312-0.23047 0.039062-0.45312 0.0625-0.67188 0.0625-0.54297 0-0.96484-0.13281-1.2656-0.40625-0.30469-0.28125-0.45312-0.67188-0.45312-1.1719 0-0.47656 0.14453-0.85938 0.4375-1.1406 0.30078-0.28125 0.70703-0.42188 1.2188-0.42188 0.46875 0 0.84375 0.14062 1.125 0.42188s0.42188 0.66406 0.42188 1.1406zm-0.96875-0.32812c0-0.17578-0.058594-0.31641-0.17188-0.42188-0.10547-0.11328-0.24219-0.17188-0.40625-0.17188-0.1875 0-0.33984 0.054687-0.45312 0.15625-0.11719 0.10547-0.1875 0.25-0.21875 0.4375z"/>
  </symbol>
  <symbol id="e" overflow="visible">
   <path d="m1.7969-1.3438c-0.19922 0-0.35156 0.039062-0.45312 0.10938-0.09375 0.0625-0.14062 0.16406-0.14062 0.29688 0 0.11719 0.035156 0.21094 0.10938 0.28125 0.082031 0.0625 0.19531 0.09375 0.34375 0.09375 0.17578 0 0.32812-0.0625 0.45312-0.1875s0.1875-0.28516 0.1875-0.48438v-0.10938zm1.4688-0.35938v1.7031h-0.96875v-0.4375c-0.125 0.17969-0.27344 0.30859-0.4375 0.39062-0.15625 0.082031-0.35156 0.125-0.57812 0.125-0.3125 0-0.57031-0.085938-0.76562-0.26562-0.1875-0.1875-0.28125-0.42188-0.28125-0.70312 0-0.35156 0.11719-0.61328 0.35938-0.78125 0.23828-0.16406 0.61719-0.25 1.1406-0.25h0.5625v-0.0625c0-0.15625-0.0625-0.26562-0.1875-0.32812-0.11719-0.070312-0.29688-0.10938-0.54688-0.10938-0.21094 0-0.40234 0.023437-0.57812 0.0625-0.17969 0.042969-0.33984 0.10156-0.48438 0.17188v-0.71875c0.19531-0.050781 0.39844-0.085938 0.60938-0.10938 0.20703-0.03125 0.41406-0.046875 0.625-0.046875 0.53906 0 0.92969 0.10938 1.1719 0.32812 0.23828 0.21094 0.35938 0.55469 0.35938 1.0312z"/>
  </symbol>
  <symbol id="c" overflow="visible">
   <path d="m1.5-3.8438v0.85938h0.98438v0.67188h-0.98438v1.2812c0 0.13672 0.023438 0.23047 0.078125 0.28125 0.0625 0.042969 0.17578 0.0625 0.34375 0.0625h0.48438v0.6875h-0.8125c-0.38672 0-0.65625-0.078125-0.8125-0.23438s-0.23438-0.42188-0.23438-0.79688v-1.2812h-0.46875v-0.67188h0.46875v-0.85938z"/>
  </symbol>
  <symbol id="k" overflow="visible">
   <path d="m2.5-2.5469v-1.6094h0.95312v4.1562h-0.95312v-0.4375c-0.13672 0.17969-0.28125 0.30859-0.4375 0.39062-0.15625 0.082031-0.33984 0.125-0.54688 0.125-0.375 0-0.68359-0.14453-0.92188-0.4375-0.23047-0.28906-0.34375-0.67188-0.34375-1.1406 0-0.45703 0.11328-0.83203 0.34375-1.125 0.23828-0.28906 0.54688-0.4375 0.92188-0.4375 0.19531 0 0.375 0.042969 0.53125 0.125 0.16406 0.085938 0.31641 0.21484 0.45312 0.39062zm-0.64062 1.9375c0.20703 0 0.36328-0.070313 0.46875-0.21875 0.11328-0.15625 0.17188-0.37891 0.17188-0.67188 0-0.28125-0.058594-0.49219-0.17188-0.64062-0.10547-0.15625-0.26172-0.23438-0.46875-0.23438-0.19922 0-0.35547 0.078125-0.46875 0.23438-0.10547 0.14844-0.15625 0.35938-0.15625 0.64062 0 0.29297 0.050781 0.51562 0.15625 0.67188 0.11328 0.14844 0.26953 0.21875 0.46875 0.21875z"/>
  </symbol>
  <symbol id="j" overflow="visible">
   <path d="m2.0469-0.60938c0.20703 0 0.36328-0.070313 0.46875-0.21875 0.11328-0.15625 0.17188-0.37891 0.17188-0.67188 0-0.28125-0.058594-0.49219-0.17188-0.64062-0.10547-0.15625-0.26172-0.23438-0.46875-0.23438-0.19922 0-0.35547 0.078125-0.46875 0.23438-0.10547 0.14844-0.15625 0.35938-0.15625 0.64062 0 0.29297 0.050781 0.51562 0.15625 0.67188 0.11328 0.14844 0.26953 0.21875 0.46875 0.21875zm-0.625-1.9375c0.125-0.17578 0.26562-0.30469 0.42188-0.39062 0.16406-0.082031 0.35156-0.125 0.5625-0.125 0.36328 0 0.66406 0.14844 0.90625 0.4375 0.23828 0.29297 0.35938 0.66797 0.35938 1.125 0 0.46875-0.12109 0.85156-0.35938 1.1406-0.24219 0.29297-0.54297 0.4375-0.90625 0.4375-0.21094 0-0.39844-0.042969-0.5625-0.125-0.15625-0.082031-0.29688-0.21094-0.42188-0.39062v0.4375h-0.96875v-4.1562h0.96875z"/>
  </symbol>
  <symbol id="i" overflow="visible">
   <path d="m0.0625-2.9844h0.95312l0.8125 2.0156 0.6875-2.0156h0.95312l-1.2656 3.2656c-0.125 0.33203-0.27344 0.56641-0.4375 0.70312-0.16797 0.13281-0.39062 0.20312-0.67188 0.20312h-0.54688v-0.64062h0.29688c0.16406 0 0.28516-0.027344 0.35938-0.078125 0.070313-0.054688 0.12891-0.14062 0.17188-0.26562l0.03125-0.09375z"/>
  </symbol>
  <symbol id="h" overflow="visible">
   <path d="m0.5-3.9844h1.3125l0.90625 2.125 0.90625-2.125h1.3125v3.9844h-0.96875v-2.9219l-0.92188 2.1562h-0.65625l-0.90625-2.1562v2.9219h-0.98438z"/>
  </symbol>
  <symbol id="u" overflow="visible">
   <path d="m1.2188-1.5312-1.0781-1.4531h1l0.625 0.875 0.60938-0.875h1.0156l-1.0781 1.4531 1.125 1.5312h-1l-0.67188-0.9375-0.67188 0.9375h-1.0156z"/>
  </symbol>
  <symbol id="t" overflow="visible">
   <path d="m0.45312-2.9844h0.96875v2.9844h-0.96875zm0-1.1719h0.96875v0.78125h-0.96875z"/>
  </symbol>
  <symbol id="g" overflow="visible">
   <path d="m2.875-2.8906v0.76562c-0.125-0.082031-0.25781-0.14453-0.39062-0.1875-0.13672-0.039062-0.27344-0.0625-0.40625-0.0625-0.27344 0-0.48047 0.078125-0.625 0.23438-0.14844 0.15625-0.21875 0.37109-0.21875 0.64062 0 0.28125 0.070313 0.5 0.21875 0.65625 0.14453 0.15625 0.35156 0.23438 0.625 0.23438 0.14453 0 0.28516-0.019531 0.42188-0.0625 0.13281-0.039063 0.25781-0.10938 0.375-0.20312v0.78125c-0.14844 0.0625-0.29688 0.10156-0.45312 0.125-0.15625 0.03125-0.3125 0.046875-0.46875 0.046875-0.54297 0-0.96484-0.13281-1.2656-0.40625-0.30469-0.28125-0.45312-0.67188-0.45312-1.1719 0-0.48828 0.14844-0.86719 0.45312-1.1406 0.30078-0.28125 0.72266-0.42188 1.2656-0.42188 0.15625 0 0.3125 0.015625 0.46875 0.046875 0.15625 0.023437 0.30469 0.0625 0.45312 0.125z"/>
  </symbol>
  <symbol id="b" overflow="visible">
   <path d="m1.875-2.375c-0.21094 0-0.37109 0.078125-0.48438 0.23438-0.10547 0.14844-0.15625 0.35938-0.15625 0.64062 0 0.29297 0.050781 0.51562 0.15625 0.67188 0.11328 0.14844 0.27344 0.21875 0.48438 0.21875 0.20703 0 0.36719-0.070313 0.48438-0.21875 0.11328-0.15625 0.17188-0.37891 0.17188-0.67188 0-0.28125-0.058594-0.49219-0.17188-0.64062-0.11719-0.15625-0.27734-0.23438-0.48438-0.23438zm0-0.6875c0.51953 0 0.92188 0.14062 1.2031 0.42188 0.28906 0.27344 0.4375 0.65234 0.4375 1.1406 0 0.5-0.14844 0.89062-0.4375 1.1719-0.28125 0.27344-0.68359 0.40625-1.2031 0.40625-0.51172 0-0.91406-0.13281-1.2031-0.40625-0.29297-0.28125-0.4375-0.67188-0.4375-1.1719 0-0.48828 0.14453-0.86719 0.4375-1.1406 0.28906-0.28125 0.69141-0.42188 1.2031-0.42188z"/>
  </symbol>
  <symbol id="f" overflow="visible">
   <path d="m3.4688-1.8281v1.8281h-0.96875v-1.3906c0-0.25781-0.007812-0.4375-0.015625-0.53125-0.011719-0.10156-0.03125-0.17578-0.0625-0.21875-0.03125-0.0625-0.085937-0.10938-0.15625-0.14062-0.0625-0.039062-0.13281-0.0625-0.20312-0.0625-0.21094 0-0.37109 0.078125-0.48438 0.23438-0.10547 0.15625-0.15625 0.37109-0.15625 0.64062v1.4688h-0.96875v-2.9844h0.96875v0.4375c0.13281-0.17578 0.28516-0.30469 0.45312-0.39062 0.16406-0.082031 0.34375-0.125 0.53125-0.125 0.34375 0 0.60156 0.10938 0.78125 0.32812 0.1875 0.21094 0.28125 0.51172 0.28125 0.90625z"/>
  </symbol>
  <symbol id="s" overflow="visible">
   <path d="m2.7969-2.8906v0.71875c-0.21094-0.082031-0.40625-0.14453-0.59375-0.1875-0.1875-0.039063-0.37109-0.0625-0.54688-0.0625-0.17969 0-0.3125 0.023437-0.40625 0.0625-0.085938 0.042969-0.125 0.10938-0.125 0.20312 0 0.085938 0.03125 0.14844 0.09375 0.1875 0.070312 0.042969 0.19531 0.074219 0.375 0.09375l0.15625 0.015625c0.48828 0.0625 0.81641 0.16797 0.98438 0.3125 0.17578 0.13672 0.26562 0.35938 0.26562 0.67188s-0.12109 0.55469-0.35938 0.71875c-0.23047 0.15625-0.57812 0.23438-1.0469 0.23438-0.19922 0-0.40625-0.015625-0.625-0.046875-0.21094-0.03125-0.42188-0.078125-0.64062-0.14062v-0.71875c0.1875 0.085937 0.37891 0.15234 0.57812 0.20312 0.20703 0.042969 0.41406 0.0625 0.625 0.0625 0.1875 0 0.32812-0.023438 0.42188-0.078125 0.09375-0.050781 0.14062-0.125 0.14062-0.21875s-0.039062-0.16016-0.10938-0.20312c-0.0625-0.039062-0.1875-0.070312-0.375-0.09375l-0.17188-0.015625c-0.42969-0.050781-0.73047-0.14844-0.90625-0.29688-0.16797-0.14453-0.25-0.36328-0.25-0.65625 0-0.32031 0.10938-0.55469 0.32812-0.70312 0.21875-0.15625 0.55078-0.23438 1-0.23438 0.17578 0 0.35938 0.015625 0.54688 0.046875 0.19531 0.023437 0.41016 0.0625 0.64062 0.125z"/>
  </symbol>
  <symbol id="r" overflow="visible">
   <path d="m2.4219-4.1562v0.625h-0.51562c-0.13672 0-0.23438 0.027344-0.29688 0.078125-0.054687 0.054687-0.078125 0.13672-0.078125 0.25v0.21875h0.82812v0.67188h-0.82812v2.3125h-0.95312v-2.3125h-0.46875v-0.67188h0.46875v-0.21875c0-0.32031 0.085937-0.5625 0.26562-0.71875 0.1875-0.15625 0.47266-0.23438 0.85938-0.23438z"/>
  </symbol>
  <symbol id="q" overflow="visible">
   <path d="m3.2344-2.5c0.11328-0.17578 0.25391-0.3125 0.42188-0.40625 0.16406-0.10156 0.35156-0.15625 0.5625-0.15625 0.33203 0 0.58594 0.10938 0.76562 0.32812 0.1875 0.21094 0.28125 0.51172 0.28125 0.90625v1.8281h-0.96875v-1.5625c0.007813-0.019531 0.015625-0.039062 0.015625-0.0625v-0.10938c0-0.21875-0.03125-0.375-0.09375-0.46875s-0.16406-0.14062-0.29688-0.14062c-0.1875 0-0.33594 0.078125-0.4375 0.23438-0.09375 0.14844-0.14062 0.35938-0.14062 0.64062v1.4688h-0.96875v-1.5625c0-0.33203-0.03125-0.54688-0.09375-0.64062-0.054688-0.09375-0.15234-0.14062-0.29688-0.14062-0.17969 0-0.32031 0.078125-0.42188 0.23438-0.09375 0.14844-0.14062 0.35938-0.14062 0.64062v1.4688h-0.96875v-2.9844h0.96875v0.4375c0.11328-0.17578 0.24219-0.30469 0.39062-0.39062 0.15625-0.082031 0.32812-0.125 0.51562-0.125 0.20703 0 0.39062 0.054688 0.54688 0.15625 0.15625 0.09375 0.27344 0.23047 0.35938 0.40625z"/>
  </symbol>
  <symbol id="p" overflow="visible">
   <path d="m3.4688-1.8281v1.8281h-0.96875v-1.3906c0-0.25781-0.007812-0.4375-0.015625-0.53125-0.011719-0.10156-0.03125-0.17578-0.0625-0.21875-0.03125-0.0625-0.085937-0.10938-0.15625-0.14062-0.0625-0.039062-0.13281-0.0625-0.20312-0.0625-0.21094 0-0.37109 0.078125-0.48438 0.23438-0.10547 0.15625-0.15625 0.37109-0.15625 0.64062v1.4688h-0.96875v-4.1562h0.96875v1.6094c0.13281-0.17578 0.28516-0.30469 0.45312-0.39062 0.16406-0.082031 0.34375-0.125 0.53125-0.125 0.34375 0 0.60156 0.10938 0.78125 0.32812 0.1875 0.21094 0.28125 0.51172 0.28125 0.90625z"/>
  </symbol>
  <symbol id="o" overflow="visible">
   <path d="m0.5-3.9844h1.1562l1.4375 2.7344v-2.7344h0.98438v3.9844h-1.1562l-1.4375-2.7344v2.7344h-0.98438z"/>
  </symbol>
  <symbol id="n" overflow="visible">
   <path d="m0.42188-1.1719v-1.8125h0.96875v0.29688 0.60938 0.48438c0 0.24219 0.003906 0.41797 0.015625 0.53125 0.007812 0.10547 0.03125 0.17969 0.0625 0.21875 0.039062 0.0625 0.09375 0.11719 0.15625 0.15625 0.0625 0.03125 0.13281 0.046875 0.21875 0.046875 0.19531 0 0.35156-0.078125 0.46875-0.23438 0.11328-0.15625 0.17188-0.36719 0.17188-0.64062v-1.4688h0.95312v2.9844h-0.95312v-0.4375c-0.14844 0.17969-0.30469 0.30859-0.46875 0.39062-0.15625 0.082031-0.33594 0.125-0.53125 0.125-0.34375 0-0.60938-0.10156-0.79688-0.3125-0.17969-0.21875-0.26562-0.53125-0.26562-0.9375z"/>
  </symbol>
  <symbol id="m" overflow="visible">
   <path d="m0.5-3.9844h1.7031c0.50781 0 0.89844 0.11719 1.1719 0.34375 0.26953 0.21875 0.40625 0.53906 0.40625 0.95312 0 0.41797-0.13672 0.74219-0.40625 0.96875-0.27344 0.21875-0.66406 0.32812-1.1719 0.32812h-0.67188v1.3906h-1.0312zm1.0312 0.75v1.1094h0.5625c0.19531 0 0.34766-0.046875 0.45312-0.14062 0.11328-0.10156 0.17188-0.24219 0.17188-0.42188 0-0.17578-0.058594-0.3125-0.17188-0.40625-0.10547-0.09375-0.25781-0.14062-0.45312-0.14062z"/>
  </symbol>
  <symbol id="l" overflow="visible">
   <path d="m0.45312-2.9844h0.96875v2.9375c0 0.39453-0.10156 0.69531-0.29688 0.90625-0.1875 0.21875-0.46484 0.32812-0.82812 0.32812h-0.48438v-0.64062h0.17188c0.17578 0 0.29688-0.042969 0.35938-0.125 0.070312-0.074219 0.10938-0.23047 0.10938-0.46875zm0-1.1719h0.96875v0.78125h-0.96875z"/>
  </symbol>
 </defs>
 <g>
  <path d="m99.043 364.12c-1.5859 1.8828-1.9336 4.5117-0.89453 6.7383 1.0352 2.2305 3.2734 3.6523 5.7305 3.6523h83.25v149.59h-14.984v-130.63c0.023438-1.6914-0.63281-3.3203-1.8203-4.5234s-2.8086-1.8789-4.4961-1.8789c-1.6914 0-3.3125 0.67578-4.5 1.8789s-1.8438 2.832-1.8203 4.5234v136.95c0 3.4922 2.8281 6.3203 6.3203 6.3203h27.621c3.4922 0 6.3203-2.8281 6.3203-6.3203v-10.855h126.11v0.003906c3.457-0.046875 6.2383-2.8633 6.2383-6.3203 0-3.4609-2.7812-6.2773-6.2383-6.3203h-126.11v-132.41h126.14c3.4883 0 6.3203-2.8281 6.3203-6.3164 0-3.4922-2.832-6.3203-6.3203-6.3203h-208.46l51.32-61.02h157.11c3.4922 0 6.3203-2.832 6.3203-6.3203 0-3.4922-2.8281-6.3203-6.3203-6.3203h-153.73v-100.8h119.24c3.4883 0 6.3203-2.8281 6.3203-6.3203 0-3.4883-2.832-6.3203-6.3203-6.3203h-155.45l199.77-137.5 74.574 51.332c2.875 1.9805 6.8086 1.2539 8.7891-1.625 1.9766-2.875 1.25-6.8086-1.625-8.7891l-78.156-53.797c-2.1562-1.4883-5.0078-1.4883-7.1641 0l-220.1 151.5c-2.2773 1.5703-3.2734 4.4414-2.4492 7.082 0.82031 2.6445 3.2656 4.4453 6.0352 4.4453h43.891v104.82z"/>
  <path d="m225.4 408.32c-1.6758 0-3.2812 0.66797-4.4688 1.8516-1.1836 1.1836-1.8516 2.793-1.8516 4.4688v52.141c0 3.4883 2.8281 6.3164 6.3203 6.3164h32.453c3.4883 0 6.3203-2.8281 6.3203-6.3164v-52.141c0-3.4922-2.832-6.3203-6.3203-6.3203zm26.133 52.141h-19.812v-39.5h19.812z"/>
  <path d="m294.74 408.32c-3.4922 0-6.3203 2.832-6.3203 6.3203v52.141c0 3.4883 2.8281 6.3164 6.3203 6.3164h32.453c3.4883 0 6.3203-2.8281 6.3203-6.3164v-52.141c0-3.4922-2.832-6.3203-6.3203-6.3203zm26.133 52.141h-19.812v-39.5h19.812z"/>
  <path d="m211.5 205.42c-3.4922 0-6.3203 2.8281-6.3203 6.3203v52.137c0 3.4922 2.8281 6.3203 6.3203 6.3203h32.453c3.4883 0 6.3203-2.8281 6.3203-6.3203v-52.137c0-3.4922-2.832-6.3203-6.3203-6.3203zm26.133 52.141-19.812-0.003906v-39.5h19.812z"/>
  <path d="m280.84 205.42c-3.4883 0-6.3203 2.8281-6.3203 6.3203v52.137c0 3.4922 2.832 6.3203 6.3203 6.3203h32.453c3.4922 0 6.3203-2.8281 6.3203-6.3203v-52.137c0-3.4922-2.8281-6.3203-6.3203-6.3203zm26.133 52.141-19.812-0.003906v-39.5h19.812z"/>
  <path d="m599.7 175.88-134.33-92.461c-2.1562-1.4844-5.0078-1.4844-7.168 0l-134.33 92.461c-2.2773 1.5703-3.2695 4.4414-2.4492 7.082 0.82422 2.6445 3.2695 4.4453 6.0352 4.4453h25.363v343c0 3.4922 2.8281 6.3203 6.3203 6.3203h27.621c3.4922 0 6.3203-2.8281 6.3203-6.3203v-10.855l137.41 0.003906v10.855-0.003906c0 3.4922 2.8281 6.3203 6.3203 6.3203h27.621c3.4922 0 6.3203-2.8281 6.3203-6.3203v-343h25.363c2.7695 0.003906 5.2148-1.7969 6.0352-4.4414s-0.17188-5.5156-2.4531-7.082zm-69.207 11.527v100.8h-31.816v-73.172c0-3.4922-2.832-6.3203-6.3203-6.3203h-61.137c-3.4883 0-6.3164 2.8281-6.3164 6.3203v73.172h-31.82v-100.8zm27.621 174.46h-192.65v-61.02h192.65zm-72.078-140.52v66.855h-17.93v-66.855zm-30.566 66.855h-17.93v-66.855h17.926zm-75.027 0h-14.984v-100.8h14.984zm0 235.89h-14.984v-149.59h14.984zm46.363-17.172v-94.773h28.656v94.773zm41.301 0v-94.773h28.656v94.773zm75.023 17.172 0.003907-130.62c0-3.4883-2.832-6.3203-6.3203-6.3203-3.4922 0-6.3203 2.832-6.3203 6.3203v113.45h-21.086v-101.09c0-3.4922-2.8281-6.3203-6.3164-6.3203h-82.602c-3.4922 0-6.3203 2.8281-6.3203 6.3203v101.09h-21.086v-132.41h165.03v149.59zm14.984-235.89h-14.984v-100.8h14.984zm6.3203-113.44h-216.65l114-78.469 114 78.469z"/>
  <use x="70" y="576.40625" xlink:href="#v"/>
  <use x="74.011719" y="576.40625" xlink:href="#d"/>
  <use x="76.710938" y="576.40625" xlink:href="#a"/>
  <use x="80.417969" y="576.40625" xlink:href="#e"/>
  <use x="84.109375" y="576.40625" xlink:href="#c"/>
  <use x="86.722656" y="576.40625" xlink:href="#a"/>
  <use x="90.433594" y="576.40625" xlink:href="#k"/>
  <use x="96.25" y="576.40625" xlink:href="#j"/>
  <use x="100.167969" y="576.40625" xlink:href="#i"/>
  <use x="105.636719" y="576.40625" xlink:href="#h"/>
  <use x="111.078125" y="576.40625" xlink:href="#e"/>
  <use x="114.765625" y="576.40625" xlink:href="#u"/>
  <use x="118.292969" y="576.40625" xlink:href="#t"/>
  <use x="120.167969" y="576.40625" xlink:href="#g"/>
  <use x="123.410156" y="576.40625" xlink:href="#b"/>
  <use x="127.167969" y="576.40625" xlink:href="#f"/>
  <use x="131.0625" y="576.40625" xlink:href="#s"/>
  <use x="70" y="581.875" xlink:href="#r"/>
  <use x="72.378906" y="581.875" xlink:href="#d"/>
  <use x="75.078125" y="581.875" xlink:href="#b"/>
  <use x="78.832031" y="581.875" xlink:href="#q"/>
  <use x="86.4375" y="581.875" xlink:href="#c"/>
  <use x="89.050781" y="581.875" xlink:href="#p"/>
  <use x="92.941406" y="581.875" xlink:href="#a"/>
  <use x="98.554688" y="581.875" xlink:href="#o"/>
  <use x="103.132812" y="581.875" xlink:href="#b"/>
  <use x="106.890625" y="581.875" xlink:href="#n"/>
  <use x="110.785156" y="581.875" xlink:href="#f"/>
  <use x="116.582031" y="581.875" xlink:href="#m"/>
  <use x="120.589844" y="581.875" xlink:href="#d"/>
  <use x="123.285156" y="581.875" xlink:href="#b"/>
  <use x="127.042969" y="581.875" xlink:href="#l"/>
  <use x="128.917969" y="581.875" xlink:href="#a"/>
  <use x="132.625" y="581.875" xlink:href="#g"/>
  <use x="135.867188" y="581.875" xlink:href="#c"/>
 </g>
</svg>
